# xmcd
#
# Track frame offsets: 
#        187
#        12912
#        24790
#        37920
#        50967
#        64730
#        75907
#        89227
#        101860
#        112920
#        123932
#        137012
#        147717
#        162710
#        175360
#        187880
#
# Disc length: 2668 seconds
#
# Revision: 0
# Processed by: cddbd v1.5.2PL0 Copyright (c) Steve Scherf et al.
# Submitted via: ExactAudioCopy v0.99pb5
#
DISCID=dc0a6a10
DTITLE=Jimmy Reed - Bright Lights, Big City
DYEAR=1988
DGENRE=Blues
TTITLE0=Bright Lights, Big City
TTITLE1=Red Lights, The Stop Light
TTITLE2=Shame, Shame, Shame
TTITLE3=Baby What You Want Me To Do
TTITLE4=I'll Change Everything
TTITLE5=Take Out Some Insurance
TTITLE6=You Got Me Dizzy
TTITLE7=Honest I Do
TTITLE8=You 'N' The Sack
TTITLE9=I Aint Got You
TTITLE10=Big Boss Man
TTITLE11=Aint That Lovin' You Baby
TTITLE12=Honey, Where You Goin'
TTITLE13=Do The Thing
TTITLE14=Don't Say Nothin'
TTITLE15=Sugar, Sugar
EXTD=
EXTT0=
EXTT1=
EXTT2=
EXTT3=
EXTT4=
EXTT5=
EXTT6=
EXTT7=
EXTT8=
EXTT9=
EXTT10=
EXTT11=
EXTT12=
EXTT13=
EXTT14=
EXTT15=
PLAYORDER=
